<?xml version="1.0" encoding="utf-8"?>
<!-- Generator: Adobe Illustrator 15.0.0, SVG Export Plug-In . SVG Version: 6.00 Build 0)  -->
<!DOCTYPE svg PUBLIC "-//W3C//DTD SVG 1.1//EN" "http://www.w3.org/Graphics/SVG/1.1/DTD/svg11.dtd">
<svg version="1.1" id="Ebene_1" xmlns="http://www.w3.org/2000/svg" xmlns:xlink="http://www.w3.org/1999/xlink" x="0px" y="0px"
	 width="144px" height="70px" viewBox="0 0 144 70" enable-background="new 0 0 144 70" xml:space="preserve">
<g>
	<rect id="P-12_4_" x="113.795" y="47.193" fill="#CB0073" width="7.552" height="7.551"/>
	<rect id="P-11_4_" x="113.795" y="54.745" fill="#A0038B" width="7.552" height="7.551"/>
	<rect id="P-10_4_" x="113.795" y="62.296" fill="#3813AD" width="7.552" height="7.552"/>
	<rect id="P-9_4_" x="121.347" y="62.296" fill="#113FA9" width="7.551" height="7.552"/>
	<rect id="P-8_4_" x="128.897" y="62.296" fill="#009797" width="7.552" height="7.552"/>
	<rect id="P-7_4_" x="136.449" y="62.296" fill="#00CA00" width="7.551" height="7.552"/>
	<rect id="P-6_4_" x="136.449" y="54.745" fill="#9DEC00" width="7.551" height="7.551"/>
	<rect id="P-5_4_" x="136.449" y="47.193" fill="#FDFD00" width="7.551" height="7.551"/>
	<rect id="P-4_4_" x="136.449" y="39.642" fill="#FDD100" width="7.551" height="7.551"/>
	<rect id="P-3_4_" x="128.897" y="39.642" fill="#FDA800" width="7.552" height="7.551"/>
	<rect id="P-2_4_" x="121.347" y="39.642" fill="#FD7300" width="7.551" height="7.551"/>
	<rect id="P-1_4_" x="113.795" y="39.642" fill="#FD0000" width="7.552" height="7.551"/>
	<g id="Letters_4_">
		<path id="C_4_" fill="#FFFFFF" d="M87.538,69.793c-4.394,0-6.202-1.81-6.202-6.201V45.846c0-4.394,1.809-6.204,6.202-6.204h20.363
			v4.91H88.786c-1.465,0-2.069,0.604-2.069,2.067v16.195c0,1.466,0.604,2.069,2.069,2.069h19.115v4.91H87.538z"/>
		<path id="S_4_" fill="#FFFFFF" d="M47.606,64.883h20.36c1.461,0,2.065-0.603,2.065-2.069v-3.83c0-1.466-0.604-2.069-2.065-2.069
			H53.807c-4.391,0-6.201-1.81-6.201-6.201v-4.869c0-4.394,1.81-6.204,6.201-6.204h20.749v4.91h-19.5
			c-1.461,0-2.065,0.604-2.065,2.067v3.316c0,1.465,0.604,2.068,2.065,2.068h14.16c4.393,0,6.202,1.81,6.202,6.201v5.387
			c0,4.391-1.81,6.201-6.202,6.201H47.606V64.883z"/>
		<path id="I_4_" fill="#FFFFFF" d="M36.808,69.793V39.642h5.383v30.151H36.808z"/>
		<path id="D_9_" fill="#FFFFFF" d="M0,39.642h24.092c4.391,0,6.201,1.81,6.201,6.204v17.747c0,4.391-1.81,6.201-6.201,6.201H0
			V39.642z M22.843,64.883c1.466,0,2.069-0.603,2.069-2.069V46.619c0-1.464-0.603-2.067-2.069-2.067H5.387v20.332H22.843z"/>
		<path id="D_8_" fill="#FFFFFF" d="M113.795,0h23.39c4.786,0,6.758,1.972,6.758,6.76v19.328c0,4.782-1.972,6.754-6.758,6.754
			h-23.39V0z M135.825,27.495c1.59,0,2.25-0.658,2.25-2.253V7.6c0-1.596-0.66-2.251-2.25-2.251h-16.171v22.146H135.825z"/>
		<path id="R_4_" fill="#FFFFFF" d="M101.006,32.841l-9.337-13.416H80.415v13.416h-5.859V0h25.229c4.785,0,6.757,1.972,6.757,6.76
			v5.91c0,4.786-1.972,6.756-6.757,6.756h-1.22l9.337,13.416H101.006z M98.423,14.078c1.597,0,2.254-0.657,2.254-2.253V7.6
			c0-1.596-0.657-2.251-2.254-2.251H80.415v8.729H98.423z"/>
		<path id="E_4_" fill="#FFFFFF" d="M36.808,32.841V0h30.959v5.349H44.922c-1.593,0-2.251,0.656-2.251,2.251v3.614
			c0,1.597,0.658,2.253,2.251,2.253h20.639v5.348H44.922c-1.593,0-2.251,0.656-2.251,2.254v4.172c0,1.595,0.658,2.253,2.251,2.253
			h22.845v5.347H36.808z"/>
		<path id="N_4_" fill="#FFFFFF" d="M23.063,32.841L7.977,8.681C7.181,7.638,5.854,7.736,5.863,9.568v23.273H0V0h8.538
			l13.779,22.565c0.801,0.945,2.097,0.622,2.107-0.891V0h5.869v32.841H23.063z"/>
	</g>
</g>
</svg>
