<?xml version="1.0" standalone="no"?>
<!DOCTYPE svg PUBLIC "-//W3C//DTD SVG 20010904//EN"
 "http://www.w3.org/TR/2001/REC-SVG-20010904/DTD/svg10.dtd">
<svg version="1.0" xmlns="http://www.w3.org/2000/svg"
 width="1152.000000pt" height="1152.000000pt" viewBox="0 0 1152.000000 1152.000000"
 preserveAspectRatio="xMidYMid meet">
<metadata>
Created by potrace 1.11, written by Peter Selinger 2001-2013
</metadata>
<g transform="translate(0.000000,1152.000000) scale(0.100000,-0.100000)"
fill="#000000" stroke="none">
<path d="M0 7247 l0 -1314 235 0 235 0 1 951 c0 523 2 960 4 971 2 11 16 30
31 43 33 29 77 22 115 -16 14 -15 70 -99 124 -187 54 -88 113 -182 131 -210
17 -27 64 -102 102 -165 39 -63 76 -120 82 -127 5 -7 10 -15 10 -18 0 -4 14
-26 30 -50 17 -24 30 -48 30 -53 0 -6 3 -12 8 -14 7 -3 92 -135 92 -144 0 -3
5 -10 10 -17 20 -23 90 -138 90 -147 0 -4 4 -10 8 -12 5 -1 39 -54 78 -116 38
-62 77 -125 86 -140 10 -15 27 -43 38 -62 23 -38 83 -136 100 -160 42 -63 90
-142 90 -150 0 -4 3 -10 8 -12 7 -3 72 -105 72 -114 0 -2 9 -14 20 -27 l21
-24 284 0 c197 0 285 3 287 11 2 6 4 596 3 1311 l0 1300 -236 3 -235 2 1 -867
c0 -478 -3 -883 -7 -902 -21 -103 -128 -101 -188 3 -12 22 -103 173 -202 333
-98 161 -260 427 -359 590 -100 164 -196 321 -214 348 -27 43 -59 96 -100 167
-5 10 -35 57 -65 105 -30 48 -54 91 -52 96 1 4 -2 7 -7 7 -9 0 -16 11 -56 88
l-17 32 -344 0 -344 0 0 -1313z"/>
<path d="M2945 7247 l0 -1314 1237 0 1238 0 1 26 c3 119 0 393 -4 397 -3 3
-436 6 -962 7 -667 1 -958 5 -963 13 -4 6 -14 13 -23 16 -9 4 -24 23 -35 45
-16 34 -18 64 -19 268 0 210 2 233 20 270 13 27 33 46 60 60 39 19 65 19 885
20 465 0 850 3 855 7 12 8 14 402 2 414 -4 4 -391 8 -859 9 -722 1 -858 3
-883 15 -69 34 -77 62 -80 280 -3 197 5 265 35 303 39 49 39 49 1037 49 859 0
933 1 934 17 0 19 0 381 0 399 -1 9 -255 12 -1239 12 l-1237 0 0 -1313z"/>
<path d="M5966 7253 c1 -719 2 -1311 3 -1314 0 -3 105 -6 231 -6 204 0 230 2
231 16 1 9 2 250 3 536 l1 520 448 0 449 1 84 -119 c46 -65 84 -122 84 -127 0
-6 4 -10 8 -10 5 0 17 -16 28 -35 10 -19 22 -35 26 -35 5 0 8 -6 8 -14 0 -8 4
-16 8 -18 4 -1 39 -48 77 -103 38 -55 106 -153 152 -218 46 -65 83 -123 83
-128 0 -5 3 -9 8 -9 4 0 23 -25 42 -55 19 -30 38 -55 43 -55 4 0 7 -4 7 -10 0
-5 20 -38 45 -73 l44 -64 268 0 c257 0 296 2 277 16 -5 3 -31 39 -58 80 -27
40 -56 79 -63 86 -7 8 -13 16 -13 19 0 3 -33 52 -72 109 -40 56 -89 126 -108
155 -19 28 -38 52 -42 52 -5 0 -8 4 -8 10 0 11 -71 113 -82 118 -5 2 -8 7 -8
12 0 8 -135 206 -165 243 -8 9 -15 21 -15 25 -1 4 -14 23 -30 42 -17 19 -30
38 -30 43 0 4 -9 17 -20 29 -11 12 -20 25 -20 28 0 4 30 7 68 7 115 0 175 6
246 25 160 44 244 124 290 277 25 85 29 153 29 476 0 336 -4 407 -33 480 -6
17 -10 30 -9 30 5 0 -37 81 -51 99 -57 70 -109 105 -206 138 l-69 23 -1095 3
-1095 3 1 -1308z m1991 866 c44 -14 54 -23 79 -69 16 -31 18 -61 17 -260 -1
-242 -3 -262 -31 -300 -42 -56 -36 -56 -845 -55 l-742 0 -1 347 -1 347 46 3
c25 2 360 2 743 1 527 -1 706 -4 735 -14z"/>
<path d="M9104 7247 l0 -1314 1006 2 c553 1 1021 6 1040 10 206 42 325 167
356 375 3 19 7 427 8 905 2 871 0 947 -33 1053 -14 45 -59 121 -90 153 -30 29
-103 79 -123 83 -7 2 -20 6 -28 10 -73 32 -143 34 -1140 35 l-996 1 0 -1313z
m1861 867 c40 -19 63 -47 72 -90 4 -16 7 -371 7 -789 1 -722 0 -762 -18 -798
-37 -75 1 -72 -767 -74 l-687 -2 0 884 0 884 52 3 c28 2 333 2 678 1 572 -1
629 -3 663 -19z"/>
<path d="M0 4183 l0 -1208 997 1 c899 1 1099 4 1125 20 5 3 20 8 34 10 69 13
160 84 204 159 28 49 48 120 57 200 8 75 7 1580 -1 1655 -16 147 -84 256 -198
313 -111 56 -113 56 -1210 57 l-1008 0 0 -1207z m1903 805 c33 -8 76 -58 83
-96 4 -20 7 -346 7 -723 0 -654 -1 -688 -19 -725 -38 -77 3 -73 -816 -74
l-728 0 0 809 c0 567 3 810 11 813 15 5 1440 1 1462 -4z"/>
<path d="M2948 5383 c-4 -7 -3 -2371 1 -2398 1 -6 76 -9 208 -8 115 0 210 2
213 2 3 1 5 542 5 1204 l0 1202 -212 3 c-116 1 -213 -1 -215 -5z"/>
<path d="M4154 5380 c-12 -5 -35 -10 -51 -13 -42 -7 -133 -52 -167 -83 -68
-64 -109 -161 -121 -284 -7 -76 -8 -569 -1 -618 23 -159 92 -271 195 -317 20
-9 45 -21 57 -26 11 -6 31 -12 45 -13 13 -2 47 -7 74 -11 28 -5 334 -9 680 -9
472 -1 635 -4 651 -13 12 -7 24 -10 27 -7 9 9 44 -50 53 -91 13 -57 9 -395 -6
-439 -7 -23 -25 -46 -48 -61 l-36 -25 -845 0 c-464 0 -846 -2 -848 -4 -4 -3
-5 -158 -4 -336 l1 -55 907 1 c968 0 990 1 1098 50 122 54 192 163 212 329 7
59 7 611 0 670 -23 194 -120 311 -292 355 -63 16 -240 23 -460 19 -27 0 -54 0
-60 1 -5 1 -28 1 -50 1 -54 -2 -54 -2 -141 0 -41 0 -78 -1 -80 -4 -3 -3 -19
-1 -35 3 -16 5 -31 5 -34 0 -3 -4 -21 -4 -40 0 -21 5 -35 4 -35 -2 0 -5 -5 -6
-11 -3 -12 8 -158 9 -165 2 -3 -3 -19 -1 -35 3 -17 5 -31 5 -35 -1 -3 -5 -9
-7 -15 -4 -7 5 -84 7 -129 4 -60 -4 -118 19 -146 60 -21 30 -37 222 -20 249 3
6 2 20 -2 33 -5 13 -6 38 -2 55 4 18 4 36 -1 41 -11 12 25 111 47 128 10 8 37
18 58 22 22 5 394 8 828 8 516 0 789 3 791 10 2 6 3 93 2 195 l0 185 -895 1
c-492 1 -905 -2 -916 -6z"/>
<path d="M6909 5385 c-3 -2 -27 -6 -54 -9 -132 -13 -235 -81 -292 -190 -55
-107 -55 -122 -56 -996 0 -626 2 -821 13 -875 37 -197 143 -297 350 -331 52
-8 1750 -12 1755 -3 3 5 8 310 6 367 l-1 22 -797 1 c-894 1 -839 -4 -877 73
-18 37 -19 72 -19 737 0 654 1 702 18 739 36 79 -11 75 877 75 432 0 790 3
793 7 6 6 9 201 6 356 l-1 32 -859 0 c-472 0 -860 -2 -862 -5z"/>
<path d="M9109 5387 c-1 -1 -3 -545 -3 -1209 l-2 -1207 1208 0 1208 1 0 1209
0 1209 -1205 0 c-663 0 -1206 -1 -1206 -3z m1806 -1204 c0 -399 -3 -603 -10
-604 -5 -1 -277 -2 -602 -3 l-593 -1 -1 25 c0 14 -1 286 -2 605 l-2 580 605 0
605 0 0 -602z"/>
</g>
</svg>
